HIERARCHY
ROOT Pelvis
{
	OFFSET 0.000000 0.000000 0.000000
	CHANNELS 6 Xposition Yposition Zposition Xrotation Yrotation Zrotation
	JOINT LeftUpLeg_virtual
	{
		OFFSET 0.000000 0.000000 0.000000
		CHANNELS 3 Xrotation Yrotation Zrotation
		JOINT LeftUpLeg
		{
			OFFSET 18.735201 -5.666702 -4.541200
			CHANNELS 3 Xrotation Yrotation Zrotation
			JOINT LeftLeg
			{
				OFFSET -0.021200 -31.938179 0.493100
				CHANNELS 3 Xrotation Yrotation Zrotation
				JOINT LeftFoot
				{
					OFFSET 0.021200 -31.938179 -4.336299
					CHANNELS 3 Xrotation Yrotation Zrotation
					JOINT LeftToeBase
					{
						OFFSET 0.943001 -26.722000 15.023500
						CHANNELS 3 Xrotation Yrotation Zrotation
						End Site
						{
							OFFSET 0 0 0
						}
					}
				}
			}
		}
	}
	JOINT RightUpLeg_virtual
	{
		OFFSET 0.000000 0.000000 0.000000
		CHANNELS 3 Xrotation Yrotation Zrotation
		JOINT RightUpLeg
		{
			OFFSET -18.735201 -5.666702 -4.541200
			CHANNELS 3 Xrotation Yrotation Zrotation
			JOINT RightLeg
			{
				OFFSET 0.018946 -31.938133 0.493100
				CHANNELS 3 Xrotation Yrotation Zrotation
				JOINT RightFoot
				{
					OFFSET -0.018946 -31.938126 -4.336299
					CHANNELS 3 Xrotation Yrotation Zrotation
					JOINT RightToeBase
					{
						OFFSET -0.943001 -26.722004 15.023500
						CHANNELS 3 Xrotation Yrotation Zrotation
						End Site
						{
							OFFSET 0 0 0
						}
					}
				}
			}
		}
	}
	JOINT Hips_virtual
	{
		OFFSET 0.000000 0.000000 0.000000
		CHANNELS 3 Xrotation Yrotation Zrotation
		JOINT Hips
		{
			OFFSET -0.000000 -0.000000 -0.000000
			CHANNELS 3 Xrotation Yrotation Zrotation
			JOINT Spine
			{
				OFFSET 0.000000 10.199997 -0.299500
				CHANNELS 3 Xrotation Yrotation Zrotation
				JOINT Spine1
				{
					OFFSET 0.000000 11.900002 -1.516600
					CHANNELS 3 Xrotation Yrotation Zrotation
					JOINT Spine2
					{
						OFFSET 0.000000 13.600006 -2.842500
						CHANNELS 3 Xrotation Yrotation Zrotation
						JOINT Neck_virtual
						{
							OFFSET 0.000000 0.000000 0.000000
							CHANNELS 3 Xrotation Yrotation Zrotation
							JOINT Neck
							{
								OFFSET 0.000000 9.624100 -2.890100
								CHANNELS 3 Xrotation Yrotation Zrotation
								JOINT Head
								{
									OFFSET 0.000000 14.068802 -1.351900
									CHANNELS 3 Xrotation Yrotation Zrotation
									End Site
									{
										OFFSET 0 0 0
									}
								}
							}
						}
						JOINT LeftShoulder_virtual
						{
							OFFSET 0.000000 0.000000 0.000000
							CHANNELS 3 Xrotation Yrotation Zrotation
							JOINT LeftShoulder
							{
								OFFSET 15.263000 10.923401 -0.547700
								CHANNELS 3 Xrotation Yrotation Zrotation
								JOINT LeftArm
								{
									OFFSET 25.438599 -2.830597 -13.032500
									CHANNELS 3 Xrotation Yrotation Zrotation
									JOINT LeftForeArm
									{
										OFFSET 29.960503 0.000000 0.000000
										CHANNELS 3 Xrotation Yrotation Zrotation
										JOINT LeftHand
										{
											OFFSET 27.849251 0.000000 0.000000
											CHANNELS 3 Xrotation Yrotation Zrotation
											End Site
											{
												OFFSET 0 0 0
											}
										}
									}
								}
							}
						}
						JOINT RightShoulder_virtual
						{
							OFFSET 0.000000 0.000000 0.000000
							CHANNELS 3 Xrotation Yrotation Zrotation
							JOINT RightShoulder
							{
								OFFSET -15.263000 10.923401 -0.547700
								CHANNELS 3 Xrotation Yrotation Zrotation
								JOINT RightArm
								{
									OFFSET -25.438599 -2.830597 -13.032500
									CHANNELS 3 Xrotation Yrotation Zrotation
									JOINT RightForeArm
									{
										OFFSET -29.960503 0.000000 0.000000
										CHANNELS 3 Xrotation Yrotation Zrotation
										JOINT RightHand
										{
											OFFSET -27.849251 0.000000 0.000000
											CHANNELS 3 Xrotation Yrotation Zrotation
											End Site
											{
												OFFSET 0 0 0
											}
										}
									}
								}
							}
						}
					}
				}
			}
		}
	}
}
MOTION
Frames: 11
Frame Time: 0.03333333
-0.195789 93.105209 -0.826239 0.000000 0.000000 0.000000 1.019604 3.204236 -0.409585 -16.025265 8.752954 7.205714 28.468097 -1.925489 2.222940 -13.701897 1.234292 -6.063611 0.000000 0.000000 0.000000 1.019604 3.204236 -0.409585 -6.793129 -6.212989 -5.618659 24.645870 -8.649904 8.399038 -17.682211 -16.551321 0.049012 0.000000 0.000000 0.000000 1.019604 3.204236 -0.409585 0.000000 0.000000 0.000000 19.037144 -0.940673 -1.326599 1.223064 -0.119062 0.413203 0.000000 0.000000 0.000000 1.222982 -0.102590 0.414475 6.999285 0.331130 0.593979 0.000000 0.000000 0.000000 1.222982 -0.102590 0.414475 11.672667 -37.520623 -0.316564 11.271317 19.967076 -51.862931 -0.000013 -34.690794 0.000001 0.000000 0.000000 0.000000 1.222982 -0.102590 0.414475 0.491475 -2.548974 6.180815 3.745292 20.212615 34.029457 -0.000003 9.536094 -0.000004 0.000000 0.000000 0.000000 
-0.182938 93.121559 -0.745438 0.000000 0.000000 0.000000 0.970249 3.174283 -0.409276 -15.840062 8.805849 7.216015 28.373402 -1.944274 2.199513 -13.746055 1.235023 -6.052623 0.000000 0.000000 0.000000 0.970249 3.174283 -0.409276 -6.599266 -6.189748 -5.586045 24.487432 -8.669398 8.351590 -17.655831 -16.562883 0.088965 0.000000 0.000000 0.000000 0.970249 3.174283 -0.409276 0.000000 0.000000 0.000000 18.770792 -0.930490 -1.327938 1.229634 -0.117465 0.406143 0.000000 0.000000 0.000000 1.229544 -0.101461 0.407324 6.987679 0.196986 0.600403 0.000000 0.000000 0.000000 1.229544 -0.101461 0.407324 11.432078 -37.413406 -0.403143 11.910118 20.221627 -52.024537 0.000007 -34.586985 -0.000004 0.000000 0.000000 0.000000 1.229544 -0.101461 0.407324 0.477895 -2.717889 6.166507 4.034781 19.963338 34.183246 0.000008 9.601060 0.000012 0.000000 0.000000 0.000000 
-0.172081 93.132896 -0.674765 0.000000 0.000000 0.000000 0.923102 3.157269 -0.397710 -15.672446 8.845168 7.208308 28.287857 -1.956107 2.183495 -13.781105 1.235794 -6.045695 0.000000 0.000000 0.000000 0.923102 3.157269 -0.397710 -6.441715 -6.184688 -5.581903 24.386857 -8.676115 8.322006 -17.655387 -16.564030 0.123235 0.000000 0.000000 0.000000 0.923102 3.157269 -0.397710 0.000000 0.000000 0.000000 18.530768 -0.904651 -1.351335 1.234593 -0.113719 0.407003 0.000000 0.000000 0.000000 1.234487 -0.097862 0.408096 6.974371 0.078270 0.609808 0.000000 0.000000 0.000000 1.234487 -0.097862 0.408096 11.198572 -37.286033 -0.490915 12.400880 20.323675 -52.234445 -0.000009 -34.431506 0.000002 0.000000 0.000000 0.000000 1.234487 -0.097862 0.408096 0.469255 -2.842995 6.172176 4.088868 19.748918 34.584806 0.000007 9.610798 -0.000012 0.000000 0.000000 0.000000 
-0.162307 93.139069 -0.613806 0.000000 0.000000 0.000000 0.876990 3.160691 -0.375236 -15.525715 8.869060 7.181243 28.215891 -1.966530 2.177825 -13.807418 1.236596 -6.042239 0.000000 0.000000 0.000000 0.876990 3.160691 -0.375236 -6.316321 -6.195922 -5.602924 24.342777 -8.670626 8.307358 -17.682470 -16.563963 0.152829 0.000000 0.000000 0.000000 0.876990 3.160691 -0.375236 0.000000 0.000000 0.000000 18.317102 -0.866959 -1.392626 1.237617 -0.108355 0.414652 0.000000 0.000000 0.000000 1.237493 -0.092382 0.415662 6.961045 -0.023306 0.618915 0.000000 0.000000 0.000000 1.237493 -0.092382 0.415662 10.974286 -37.134181 -0.580667 12.738218 20.288145 -52.482487 -0.000009 -34.226795 -0.000003 0.000000 0.000000 0.000000 1.237493 -0.092382 0.415662 0.465133 -2.927775 6.199372 3.910889 19.563084 35.227469 0.000001 9.562527 -0.000006 0.000000 0.000000 0.000000 
-0.152649 93.140717 -0.562084 0.000000 0.000000 0.000000 0.828669 3.190872 -0.345129 -15.401303 8.877768 7.138001 28.161830 -1.983529 2.184544 -13.825836 1.237334 -6.041029 0.000000 0.000000 0.000000 0.828669 3.190872 -0.345129 -6.211971 -6.219265 -5.640153 24.344355 -8.655947 8.302678 -17.733891 -16.573509 0.178766 0.000000 0.000000 0.000000 0.828669 3.190872 -0.345129 0.000000 0.000000 0.000000 18.132493 -0.820088 -1.443985 1.238722 -0.101848 0.428710 0.000000 0.000000 0.000000 1.238573 -0.085526 0.429644 6.948926 -0.107039 0.624693 0.000000 0.000000 0.000000 1.238573 -0.085526 0.429644 10.762252 -36.958454 -0.671949 12.927844 20.131009 -52.757901 0.000002 -33.986403 0.000010 0.000000 0.000000 0.000000 1.238573 -0.085526 0.429644 0.465288 -2.973858 6.249358 3.518504 19.404427 36.092659 0.000001 9.454701 0.000004 0.000000 0.000000 0.000000 
-0.142492 93.139076 -0.519238 0.000000 0.000000 0.000000 0.773557 3.251397 -0.312227 -15.299246 8.873348 7.085101 28.130923 -2.015233 2.204262 -13.838522 1.237928 -6.040499 0.000000 0.000000 0.000000 0.773557 3.251397 -0.312227 -6.113183 -6.249486 -5.681435 24.373761 -8.637184 8.301857 -17.802289 -16.601955 0.201872 0.000000 0.000000 0.000000 0.773557 3.251397 -0.312227 0.000000 0.000000 0.000000 17.981077 -0.765997 -1.495188 1.238180 -0.094588 0.448609 0.000000 0.000000 0.000000 1.237966 -0.077739 0.449470 6.938395 -0.173422 0.625390 0.000000 0.000000 0.000000 1.237966 -0.077739 0.449470 10.567758 -36.765713 -0.762367 12.983246 19.868933 -53.051865 -0.000001 -33.730411 -0.000007 0.000000 0.000000 0.000000 1.237966 -0.077739 0.449470 0.469757 -2.980016 6.322709 2.938482 19.275263 37.154002 -0.000010 9.287210 0.000012 0.000000 0.000000 0.000000 
-0.131659 93.135574 -0.485060 0.000000 0.000000 0.000000 0.707631 3.342437 -0.280680 -15.217556 8.858881 7.029360 28.125442 -2.067307 2.235878 -13.847061 1.238243 -6.039237 0.000000 0.000000 0.000000 0.707631 3.342437 -0.280680 -6.006834 -6.282372 -5.716757 24.414988 -8.619163 8.300461 -17.880365 -16.654542 0.222520 0.000000 0.000000 0.000000 0.707631 3.342437 -0.280680 0.000000 0.000000 0.000000 17.866042 -0.706141 -1.536590 1.236354 -0.086862 0.473127 0.000000 0.000000 0.000000 1.236038 -0.069373 0.473914 6.929217 -0.224096 0.621123 0.000000 0.000000 0.000000 1.236038 -0.069373 0.473914 10.397788 -36.567498 -0.848127 12.922678 19.518234 -53.359641 0.000004 -33.484364 0.000011 0.000000 0.000000 0.000000 1.236038 -0.069373 0.473914 0.478996 -2.941788 6.419240 2.199136 19.178258 38.382716 -0.000002 9.062162 -0.000012 0.000000 0.000000 0.000000 
-0.120631 93.131477 -0.459299 0.000000 0.000000 0.000000 0.629603 3.460615 -0.251947 -15.151958 8.837544 6.974725 28.141175 -2.140730 2.276849 -13.850619 1.238123 -6.036514 0.000000 0.000000 0.000000 0.629603 3.460615 -0.251947 -5.886447 -6.316070 -5.741343 24.457075 -8.605372 8.296320 -17.962281 -16.730528 0.240486 0.000000 0.000000 0.000000 0.629603 3.460615 -0.251947 0.000000 0.000000 0.000000 17.786390 -0.640964 -1.562694 1.233735 -0.078739 0.500674 0.000000 0.000000 0.000000 1.233308 -0.060561 0.501385 6.920854 -0.261564 0.613800 0.000000 0.000000 0.000000 1.233308 -0.060561 0.501385 10.258270 -36.375781 -0.925633 12.766412 19.092942 -53.681865 0.000004 -33.277723 0.000027 0.000000 0.000000 0.000000 1.233308 -0.060561 0.501385 0.494023 -2.852074 6.538375 1.324947 19.112584 39.751773 0.000004 8.784887 0.000007 0.000000 0.000000 0.000000 
-0.110384 93.127602 -0.441439 0.000000 0.000000 0.000000 0.541948 3.599408 -0.224501 -15.097653 8.811998 6.921582 28.168895 -2.231454 2.323551 -13.846778 1.237428 -6.032380 0.000000 0.000000 0.000000 0.541948 3.599408 -0.224501 -5.754959 -6.350695 -5.756740 24.498060 -8.596699 8.289982 -18.045816 -16.824359 0.255159 0.000000 0.000000 0.000000 0.541948 3.599408 -0.224501 0.000000 0.000000 0.000000 17.734803 -0.568946 -1.573945 1.230920 -0.069935 0.529957 0.000000 0.000000 0.000000 1.230350 -0.051077 0.530588 6.912849 -0.288753 0.606393 0.000000 0.000000 0.000000 1.230350 -0.051077 0.530588 10.150758 -36.197967 -0.993322 12.532743 18.601590 -54.023070 0.000002 -33.136939 -0.000011 0.000000 0.000000 0.000000 1.230350 -0.051077 0.530588 0.516414 -2.702350 6.679545 0.336648 19.071761 41.236960 -0.000000 8.465364 -0.000003 0.000000 0.000000 0.000000 
-0.102161 93.124435 -0.430357 0.000000 0.000000 0.000000 0.450209 3.750039 -0.195123 -15.049178 8.784545 6.868096 28.195007 -2.332071 2.371688 -13.831796 1.236031 -6.027598 0.000000 0.000000 0.000000 0.450209 3.750039 -0.195123 -5.621839 -6.386559 -5.767817 24.541525 -8.592241 8.282783 -18.131171 -16.928211 0.265977 0.000000 0.000000 0.000000 0.450209 3.750039 -0.195123 0.000000 0.000000 0.000000 17.699180 -0.486144 -1.575891 1.228406 -0.059818 0.560579 0.000000 0.000000 0.000000 1.227653 -0.040292 0.561114 6.905074 -0.308523 0.601930 0.000000 0.000000 0.000000 1.227653 -0.040292 0.561114 10.070457 -36.033558 -1.052756 12.233198 18.044506 -54.388718 -0.000004 -33.073910 -0.000008 0.000000 0.000000 0.000000 1.227653 -0.040292 0.561114 0.548312 -2.484010 6.842187 -0.745151 19.044459 42.815546 -0.000006 8.118754 -0.000000 0.000000 0.000000 0.000000 
-0.097038 93.122208 -0.424150 0.000000 0.000000 0.000000 0.360457 3.902919 -0.160704 -15.001375 8.757365 6.812118 28.207399 -2.434227 2.417386 -13.803724 1.233988 -6.023284 0.000000 0.000000 0.000000 0.360457 3.902919 -0.160704 -5.497019 -6.422636 -5.778774 24.591058 -8.590124 8.274591 -18.218703 -17.035639 0.272949 0.000000 0.000000 0.000000 0.360457 3.902919 -0.160704 0.000000 0.000000 0.000000 17.665548 -0.387050 -1.576329 1.226261 -0.047549 0.593145 0.000000 0.000000 0.000000 1.225315 -0.027345 0.593560 6.897652 -0.323264 0.602543 0.000000 0.000000 0.000000 1.225315 -0.027345 0.593560 10.006937 -35.873765 -1.108474 11.868475 17.413675 -54.781392 0.000000 -33.075184 -0.000008 0.000000 0.000000 0.000000 1.225315 -0.027345 0.593560 0.592308 -2.189747 7.025121 -1.897280 19.017880 44.465658 -0.000003 7.763448 0.000003 0.000000 0.000000 0.000000 
